<?xml version="1.0" standalone="no"?>
<!DOCTYPE svg PUBLIC "-//W3C//DTD SVG 20010904//EN"
 "http://www.w3.org/TR/2001/REC-SVG-20010904/DTD/svg10.dtd">
<svg version="1.0" xmlns="http://www.w3.org/2000/svg"
 width="160.000000pt" height="160.000000pt" viewBox="0 0 160.000000 160.000000"
 preserveAspectRatio="xMidYMid meet">
<metadata>
Created by potrace 1.11, written by Peter Selinger 2001-2013
</metadata>
<g transform="translate(0.000000,160.000000) scale(0.100000,-0.100000)"
fill="#000000" stroke="none">
<path d="M0 800 l0 -800 800 0 800 0 0 800 0 800 -800 0 -800 0 0 -800z m1016
480 c-93 -139 -136 -289 -136 -479 0 -164 22 -265 87 -396 19 -38 50 -91 69
-118 l34 -47 -34 0 c-29 0 -39 7 -66 42 -48 66 -108 194 -131 283 -31 116 -31
335 -1 457 26 106 67 198 123 278 37 53 46 60 75 60 l33 0 -53 -80z m-404
-187 c22 -20 23 -41 1 -65 -20 -22 -51 -23 -75 -1 -22 20 -23 46 -2 67 20 21
53 20 76 -1z m0 -570 c22 -20 23 -41 1 -65 -20 -22 -51 -23 -75 -1 -22 20 -23
46 -2 67 20 21 53 20 76 -1z"/>
</g>
</svg>
